<?xml version="1.0" encoding="UTF-8" standalone="no"?>
<!DOCTYPE svg PUBLIC "-//W3C//DTD SVG 1.1//EN"
 "http://www.w3.org/Graphics/SVG/1.1/DTD/svg11.dtd">
<!-- Generated by graphviz version 2.38.0 (20140413.2041)
 -->
<!-- Title: controllers_diagram Pages: 1 -->
<svg width="387pt" height="404pt"
 viewBox="0.00 0.00 387.00 403.50" xmlns="http://www.w3.org/2000/svg" xmlns:xlink="http://www.w3.org/1999/xlink">
<g id="graph0" class="graph" transform="scale(1 1) rotate(0) translate(109 219.5)">
<title>controllers_diagram</title>
<polygon fill="none" stroke="none" points="-109,184 -109,-219.5 278,-219.5 278,184 -109,184"/>
<!-- _diagram_info -->
<g id="node1" class="node"><title>_diagram_info</title>
<text text-anchor="start" x="68" y="-3.6" font-family="Times,serif" font-size="13.00">Controllers diagram</text>
<text text-anchor="start" x="68" y="10.4" font-family="Times,serif" font-size="13.00">Date: Dec 21 2018 &#45; 02:38</text>
<text text-anchor="start" x="68" y="24.4" font-family="Times,serif" font-size="13.00">Migration version: 20181220224355</text>
<text text-anchor="start" x="68" y="38.4" font-family="Times,serif" font-size="13.00">Generated by RailRoady 1.5.3</text>
<text text-anchor="start" x="68" y="52.4" font-family="Times,serif" font-size="13.00">http://railroady.prestonlee.com</text>
</g>
<!-- HomeController -->
<g id="node2" class="node"><title>HomeController</title>
<path fill="none" stroke="black" d="M72,179.5C72,179.5 154,179.5 154,179.5 160,179.5 166,173.5 166,167.5 166,167.5 166,98.5 166,98.5 166,92.5 160,86.5 154,86.5 154,86.5 72,86.5 72,86.5 66,86.5 60,92.5 60,98.5 60,98.5 60,167.5 60,167.5 60,173.5 66,179.5 72,179.5"/>
<text text-anchor="middle" x="113" y="101.7" font-family="Times,serif" font-size="14.00">HomeController</text>
<polyline fill="none" stroke="black" points="60,109.5 166,109.5 "/>
<text text-anchor="start" x="68" y="124.7" font-family="Times,serif" font-size="14.00">index</text>
<polyline fill="none" stroke="black" points="60,132.5 166,132.5 "/>
<polyline fill="none" stroke="black" points="60,156.5 166,156.5 "/>
<text text-anchor="start" x="68" y="171.7" font-family="Times,serif" font-size="14.00">_layout</text>
</g>
<!-- ApplicationController -->
<g id="node3" class="node"><title>ApplicationController</title>
<path fill="none" stroke="black" d="M-93,-121C-93,-121 19,-121 19,-121 25,-121 31,-127 31,-133 31,-133 31,-203 31,-203 31,-209 25,-215 19,-215 19,-215 -93,-215 -93,-215 -99,-215 -105,-209 -105,-203 -105,-203 -105,-133 -105,-133 -105,-127 -99,-121 -93,-121"/>
<text text-anchor="middle" x="-37" y="-199.8" font-family="Times,serif" font-size="14.00">ApplicationController</text>
<polyline fill="none" stroke="black" points="-105,-192 31,-192 "/>
<polyline fill="none" stroke="black" points="-105,-168 31,-168 "/>
<polyline fill="none" stroke="black" points="-105,-144 31,-144 "/>
<text text-anchor="start" x="-97" y="-128.8" font-family="Times,serif" font-size="14.00">_layout</text>
</g>
<!-- ProfilesController -->
<g id="node4" class="node"><title>ProfilesController</title>
<path fill="none" stroke="black" d="M72,-45C72,-45 162,-45 162,-45 168,-45 174,-51 174,-57 174,-57 174,-201 174,-201 174,-207 168,-213 162,-213 162,-213 72,-213 72,-213 66,-213 60,-207 60,-201 60,-201 60,-57 60,-57 60,-51 66,-45 72,-45"/>
<text text-anchor="middle" x="117" y="-197.8" font-family="Times,serif" font-size="14.00">ProfilesController</text>
<polyline fill="none" stroke="black" points="60,-190 174,-190 "/>
<text text-anchor="start" x="68" y="-174.8" font-family="Times,serif" font-size="14.00">edit</text>
<text text-anchor="start" x="68" y="-159.8" font-family="Times,serif" font-size="14.00">index</text>
<text text-anchor="start" x="68" y="-144.8" font-family="Times,serif" font-size="14.00">show</text>
<text text-anchor="start" x="68" y="-129.8" font-family="Times,serif" font-size="14.00">update</text>
<polyline fill="none" stroke="black" points="60,-122 174,-122 "/>
<polyline fill="none" stroke="black" points="60,-98 174,-98 "/>
<text text-anchor="start" x="68" y="-82.8" font-family="Times,serif" font-size="14.00">_layout</text>
<text text-anchor="start" x="68" y="-67.8" font-family="Times,serif" font-size="14.00">profile_params</text>
<text text-anchor="start" x="68" y="-52.8" font-family="Times,serif" font-size="14.00">set_profile</text>
</g>
<!-- AdsController -->
<g id="node5" class="node"><title>AdsController</title>
<path fill="none" stroke="black" d="M-48,119.5C-48,119.5 22,119.5 22,119.5 28,119.5 34,113.5 34,107.5 34,107.5 34,-81.5 34,-81.5 34,-87.5 28,-93.5 22,-93.5 22,-93.5 -48,-93.5 -48,-93.5 -54,-93.5 -60,-87.5 -60,-81.5 -60,-81.5 -60,107.5 -60,107.5 -60,113.5 -54,119.5 -48,119.5"/>
<text text-anchor="middle" x="-13" y="-78.3" font-family="Times,serif" font-size="14.00">AdsController</text>
<polyline fill="none" stroke="black" points="-60,-70.5 34,-70.5 "/>
<text text-anchor="start" x="-52" y="-55.3" font-family="Times,serif" font-size="14.00">create</text>
<text text-anchor="start" x="-52" y="-40.3" font-family="Times,serif" font-size="14.00">destroy</text>
<text text-anchor="start" x="-52" y="-25.3" font-family="Times,serif" font-size="14.00">edit</text>
<text text-anchor="start" x="-52" y="-10.3" font-family="Times,serif" font-size="14.00">index</text>
<text text-anchor="start" x="-52" y="4.7" font-family="Times,serif" font-size="14.00">new</text>
<text text-anchor="start" x="-52" y="19.7" font-family="Times,serif" font-size="14.00">show</text>
<text text-anchor="start" x="-52" y="34.7" font-family="Times,serif" font-size="14.00">update</text>
<polyline fill="none" stroke="black" points="-60,42.5 34,42.5 "/>
<polyline fill="none" stroke="black" points="-60,66.5 34,66.5 "/>
<text text-anchor="start" x="-52" y="81.7" font-family="Times,serif" font-size="14.00">_layout</text>
<text text-anchor="start" x="-52" y="96.7" font-family="Times,serif" font-size="14.00">ad_params</text>
<text text-anchor="start" x="-52" y="111.7" font-family="Times,serif" font-size="14.00">set_ad</text>
</g>
</g>
</svg>
