<?xml version="1.0" encoding="UTF-8" standalone="no"?>
<!DOCTYPE svg PUBLIC "-//W3C//DTD SVG 1.1//EN"
 "http://www.w3.org/Graphics/SVG/1.1/DTD/svg11.dtd">
<!-- Generated by graphviz version 2.38.0 (20140413.2041)
 -->
<!-- Title: models_diagram Pages: 1 -->
<svg width="612pt" height="701pt"
 viewBox="0.00 0.00 612.34 701.00" xmlns="http://www.w3.org/2000/svg" xmlns:xlink="http://www.w3.org/1999/xlink">
<g id="graph0" class="graph" transform="scale(1 1) rotate(0) translate(4 697)">
<title>models_diagram</title>
<polygon fill="none" stroke="none" points="-4,4 -4,-697 608.343,-697 608.343,4 -4,4"/>
<!-- _diagram_info -->
<g id="node1" class="node"><title>_diagram_info</title>
<text text-anchor="start" x="8" y="-581.6" font-family="Times,serif" font-size="13.00">Models diagram</text>
<text text-anchor="start" x="8" y="-567.6" font-family="Times,serif" font-size="13.00">Date: Dec 21 2018 &#45; 02:38</text>
<text text-anchor="start" x="8" y="-553.6" font-family="Times,serif" font-size="13.00">Migration version: 20181220224355</text>
<text text-anchor="start" x="8" y="-539.6" font-family="Times,serif" font-size="13.00">Generated by RailRoady 1.5.3</text>
<text text-anchor="start" x="8" y="-525.6" font-family="Times,serif" font-size="13.00">http://railroady.prestonlee.com</text>
</g>
<!-- Ad -->
<g id="node2" class="node"><title>Ad</title>
<path fill="none" stroke="black" d="M269.5,-188.5C269.5,-188.5 394.5,-188.5 394.5,-188.5 400.5,-188.5 406.5,-194.5 406.5,-200.5 406.5,-200.5 406.5,-372.5 406.5,-372.5 406.5,-378.5 400.5,-384.5 394.5,-384.5 394.5,-384.5 269.5,-384.5 269.5,-384.5 263.5,-384.5 257.5,-378.5 257.5,-372.5 257.5,-372.5 257.5,-200.5 257.5,-200.5 257.5,-194.5 263.5,-188.5 269.5,-188.5"/>
<text text-anchor="middle" x="332" y="-369.3" font-family="Times,serif" font-size="14.00">Ad</text>
<polyline fill="none" stroke="black" points="257.5,-361.5 406.5,-361.5 "/>
<text text-anchor="start" x="265.5" y="-346.3" font-family="Times,serif" font-size="14.00">id :integer</text>
<text text-anchor="start" x="265.5" y="-331.3" font-family="Times,serif" font-size="14.00">real_estate_type :integer</text>
<text text-anchor="start" x="265.5" y="-316.3" font-family="Times,serif" font-size="14.00">square :float</text>
<text text-anchor="start" x="265.5" y="-301.3" font-family="Times,serif" font-size="14.00">rooms :integer</text>
<text text-anchor="start" x="265.5" y="-286.3" font-family="Times,serif" font-size="14.00">adress :varchar</text>
<text text-anchor="start" x="265.5" y="-271.3" font-family="Times,serif" font-size="14.00">rent_limit_days :integer</text>
<text text-anchor="start" x="265.5" y="-256.3" font-family="Times,serif" font-size="14.00">created_at :datetime</text>
<text text-anchor="start" x="265.5" y="-241.3" font-family="Times,serif" font-size="14.00">updated_at :datetime</text>
<text text-anchor="start" x="265.5" y="-226.3" font-family="Times,serif" font-size="14.00">user_id :integer</text>
<text text-anchor="start" x="265.5" y="-211.3" font-family="Times,serif" font-size="14.00">price_per_day :float</text>
<text text-anchor="start" x="265.5" y="-196.3" font-family="Times,serif" font-size="14.00">second_adress :varchar</text>
</g>
<!-- Picture -->
<g id="node4" class="node"><title>Picture</title>
<path fill="none" stroke="black" d="M256.5,-0.5C256.5,-0.5 407.5,-0.5 407.5,-0.5 413.5,-0.5 419.5,-6.5 419.5,-12.5 419.5,-12.5 419.5,-139.5 419.5,-139.5 419.5,-145.5 413.5,-151.5 407.5,-151.5 407.5,-151.5 256.5,-151.5 256.5,-151.5 250.5,-151.5 244.5,-145.5 244.5,-139.5 244.5,-139.5 244.5,-12.5 244.5,-12.5 244.5,-6.5 250.5,-0.5 256.5,-0.5"/>
<text text-anchor="middle" x="332" y="-136.3" font-family="Times,serif" font-size="14.00">Picture</text>
<polyline fill="none" stroke="black" points="244.5,-128.5 419.5,-128.5 "/>
<text text-anchor="start" x="252.5" y="-113.3" font-family="Times,serif" font-size="14.00">id :integer</text>
<text text-anchor="start" x="252.5" y="-98.3" font-family="Times,serif" font-size="14.00">created_at :datetime</text>
<text text-anchor="start" x="252.5" y="-83.3" font-family="Times,serif" font-size="14.00">updated_at :datetime</text>
<text text-anchor="start" x="252.5" y="-68.3" font-family="Times,serif" font-size="14.00">image_file_name :varchar</text>
<text text-anchor="start" x="252.5" y="-53.3" font-family="Times,serif" font-size="14.00">image_content_type :varchar</text>
<text text-anchor="start" x="252.5" y="-38.3" font-family="Times,serif" font-size="14.00">image_file_size :integer</text>
<text text-anchor="start" x="252.5" y="-23.3" font-family="Times,serif" font-size="14.00">image_updated_at :datetime</text>
<text text-anchor="start" x="252.5" y="-8.3" font-family="Times,serif" font-size="14.00">ad_id :integer</text>
</g>
<!-- Ad&#45;&gt;Picture -->
<g id="edge1" class="edge"><title>Ad&#45;&gt;Picture</title>
<path fill="none" stroke="#40533f" d="M332,-180.176C332,-174.001 332,-167.83 332,-161.751"/>
<ellipse fill="none" stroke="#40533f" cx="332" cy="-184.27" rx="4" ry="4"/>
<polygon fill="#40533f" stroke="#40533f" points="332,-161.622 336.5,-151.622 332,-156.622 332,-151.622 332,-151.622 332,-151.622 332,-156.622 327.5,-151.622 332,-161.622 332,-161.622"/>
</g>
<!-- User -->
<g id="node3" class="node"><title>User</title>
<path fill="none" stroke="black" d="M244,-421.5C244,-421.5 420,-421.5 420,-421.5 426,-421.5 432,-427.5 432,-433.5 432,-433.5 432,-680.5 432,-680.5 432,-686.5 426,-692.5 420,-692.5 420,-692.5 244,-692.5 244,-692.5 238,-692.5 232,-686.5 232,-680.5 232,-680.5 232,-433.5 232,-433.5 232,-427.5 238,-421.5 244,-421.5"/>
<text text-anchor="middle" x="332" y="-677.3" font-family="Times,serif" font-size="14.00">User</text>
<polyline fill="none" stroke="black" points="232,-669.5 432,-669.5 "/>
<text text-anchor="start" x="240" y="-654.3" font-family="Times,serif" font-size="14.00">id :integer</text>
<text text-anchor="start" x="240" y="-639.3" font-family="Times,serif" font-size="14.00">email :varchar</text>
<text text-anchor="start" x="240" y="-624.3" font-family="Times,serif" font-size="14.00">encrypted_password :varchar</text>
<text text-anchor="start" x="240" y="-609.3" font-family="Times,serif" font-size="14.00">reset_password_token :varchar</text>
<text text-anchor="start" x="240" y="-594.3" font-family="Times,serif" font-size="14.00">reset_password_sent_at :datetime</text>
<text text-anchor="start" x="240" y="-579.3" font-family="Times,serif" font-size="14.00">remember_created_at :datetime</text>
<text text-anchor="start" x="240" y="-564.3" font-family="Times,serif" font-size="14.00">created_at :datetime</text>
<text text-anchor="start" x="240" y="-549.3" font-family="Times,serif" font-size="14.00">updated_at :datetime</text>
<text text-anchor="start" x="240" y="-534.3" font-family="Times,serif" font-size="14.00">phone_number :varchar</text>
<text text-anchor="start" x="240" y="-519.3" font-family="Times,serif" font-size="14.00">firstname :varchar</text>
<text text-anchor="start" x="240" y="-504.3" font-family="Times,serif" font-size="14.00">lastname :varchar</text>
<text text-anchor="start" x="240" y="-489.3" font-family="Times,serif" font-size="14.00">name :varchar</text>
<text text-anchor="start" x="240" y="-474.3" font-family="Times,serif" font-size="14.00">avatar_file_name :varchar</text>
<text text-anchor="start" x="240" y="-459.3" font-family="Times,serif" font-size="14.00">avatar_content_type :varchar</text>
<text text-anchor="start" x="240" y="-444.3" font-family="Times,serif" font-size="14.00">avatar_file_size :integer</text>
<text text-anchor="start" x="240" y="-429.3" font-family="Times,serif" font-size="14.00">avatar_updated_at :datetime</text>
</g>
<!-- User&#45;&gt;Ad -->
<g id="edge2" class="edge"><title>User&#45;&gt;Ad</title>
<path fill="none" stroke="#00e380" d="M332,-413.204C332,-406.994 332,-400.809 332,-394.701"/>
<ellipse fill="none" stroke="#00e380" cx="332" cy="-417.357" rx="4" ry="4"/>
<polygon fill="#00e380" stroke="#00e380" points="332,-394.505 336.5,-384.505 332,-389.505 332,-384.505 332,-384.505 332,-384.505 332,-389.505 327.5,-384.505 332,-394.505 332,-394.505"/>
</g>
<!-- ApplicationRecord -->
<g id="node5" class="node"><title>ApplicationRecord</title>
<ellipse fill="none" stroke="black" cx="527" cy="-557" rx="77.1866" ry="18"/>
<text text-anchor="middle" x="527" y="-553.3" font-family="Times,serif" font-size="14.00">ApplicationRecord</text>
</g>
</g>
</svg>
